<svg width="21" height="15" viewBox="0 0 21 15" fill="none" xmlns="http://www.w3.org/2000/svg">
<path d="M20.9713 11.8821L19.7799 3.675C19.6308 2.65417 19.1109 1.72035 18.3157 1.04519C17.5205 0.370031 16.5034 -0.00110395 15.4513 2.46669e-06H5.5482C3.373 2.46669e-06 1.52573 1.56429 1.21967 3.675L0.0282339 11.8821C-0.0547815 12.449 0.0463548 13.027 0.317302 13.5343C0.588249 14.0416 1.01525 14.4525 1.53777 14.7085C2.06028 14.9646 2.65178 15.053 3.22839 14.9611C3.80501 14.8691 4.33746 14.6016 4.75026 14.1964L7.22058 11.7857H13.7789L16.2383 14.1964C16.763 14.7107 17.4735 15 18.2058 15C19.911 15 21.2118 13.5321 20.9713 11.8821ZM9.4067 6.42857H7.22058V8.57143H6.12752V6.42857H3.94139V5.35714H6.12752V3.21429H7.22058V5.35714H9.4067V6.42857ZM13.7789 5.35714C13.1778 5.35714 12.6859 4.875 12.6859 4.28572C12.6859 3.69643 13.1778 3.21429 13.7789 3.21429C14.3801 3.21429 14.872 3.69643 14.872 4.28572C14.872 4.875 14.3801 5.35714 13.7789 5.35714ZM15.9651 8.57143C15.3639 8.57143 14.872 8.08929 14.872 7.5C14.872 6.91072 15.3639 6.42857 15.9651 6.42857C16.5663 6.42857 17.0581 6.91072 17.0581 7.5C17.0581 8.08929 16.5663 8.57143 15.9651 8.57143Z" fill="#454B73"/>
</svg>
