<svg xmlns="http://www.w3.org/2000/svg" width="256" height="256" viewBox="0 0 100 100"><rect width="100" height="100" rx="20" fill="#b8e986"></rect><path fill="#fff" d="M27.63 22.82L27.63 22.82Q28.08 22.64 29.03 22.41Q29.97 22.19 30.96 22.19L30.96 22.19Q34.92 22.19 34.92 25.52L34.92 25.52L34.92 64.04Q34.92 68.09 33.75 70.83Q32.58 73.58 30.56 75.25Q28.53 76.91 25.88 77.63Q23.22 78.35 20.34 78.35L20.34 78.35Q15.21 78.35 12.87 77.14Q10.53 75.92 10.53 73.94L10.53 73.94Q10.53 72.68 11.07 71.78Q11.61 70.88 12.06 70.43L12.06 70.43Q13.41 71.06 15.30 71.60Q17.19 72.14 19.26 72.14L19.26 72.14Q23.31 72.14 25.47 70.20Q27.63 68.27 27.63 63.68L27.63 63.68L27.63 22.82ZM67.41 57.83L58.32 57.83L58.32 77.18Q57.78 77.36 56.88 77.58Q55.98 77.81 54.90 77.81L54.90 77.81Q50.94 77.81 50.94 74.48L50.94 74.48L50.94 26.60Q50.94 25.16 51.66 24.40Q52.38 23.63 53.91 23.18L53.91 23.18Q56.52 22.37 60.26 22.01Q63.99 21.65 67.50 21.65L67.50 21.65Q78.94 21.65 84.20 26.47Q89.47 31.28 89.47 39.47L89.47 39.47Q89.47 47.84 84.06 52.84Q78.66 57.83 67.41 57.83L67.41 57.83ZM58.23 51.71L66.96 51.71Q74.16 51.71 78.13 48.74Q82.08 45.77 82.08 39.56L82.08 39.56Q82.08 33.44 78.26 30.61Q74.44 27.77 67.32 27.77L67.32 27.77Q64.89 27.77 62.51 28.00Q60.12 28.22 58.23 28.58L58.23 28.58L58.23 51.71Z"></path></svg>