<svg width="20" height="20" viewBox="0 0 20 20" fill="none" xmlns="http://www.w3.org/2000/svg">
<path d="M10 20C4.4878 20 0 15.5122 0 10C0 4.4878 4.4878 0 10 0C15.5122 0 20 4.4878 20 10C20 15.522 15.5122 20 10 20ZM10 0.458538C4.74146 0.458538 0.448802 4.74146 0.448802 10C0.448802 15.2683 4.73171 19.5415 10 19.5415C15.2585 19.5415 19.5415 15.2585 19.5415 10C19.5512 4.74146 15.2683 0.458538 10 0.458538Z" fill="#454B73"/>
<path d="M12.361 6.17535H7.64882C5.92199 6.17535 4.51709 7.58024 4.51709 9.30707V11.1217C4.51709 12.8485 5.92199 14.2534 7.64882 14.2534H12.361C14.0878 14.2534 15.4927 12.8485 15.4927 11.1217V9.30707C15.4927 7.58024 14.0878 6.17535 12.361 6.17535ZM12.361 6.90706C12.7805 6.90706 13.1805 7.02414 13.522 7.21926L9.99028 9.76561L6.30247 7.31682C6.68296 7.0534 7.15126 6.90706 7.64882 6.90706H12.361ZM5.2488 9.30707C5.2488 8.75097 5.44392 8.24365 5.76587 7.84365L7.81466 9.19975L5.65857 12.4583C5.39515 12.0778 5.2488 11.6095 5.2488 11.1119V9.30707ZM7.64882 13.5119C7.09272 13.5119 6.58539 13.3168 6.17564 12.9949L8.41953 9.58999L10.0098 10.6436L11.4439 9.6095L13.7268 13.0729C13.3366 13.3461 12.8683 13.5022 12.361 13.5022H7.64882V13.5119ZM14.761 11.1119C14.761 11.6583 14.5659 12.1558 14.2635 12.5558L12.0391 9.18998L14.1171 7.68755C14.5073 8.11682 14.7513 8.68267 14.7513 9.2973V11.1119H14.761Z" fill="#454B73"/>
</svg>
