<svg width="20" height="20" viewBox="0 0 20 20" fill="none" xmlns="http://www.w3.org/2000/svg">
<path d="M10 20C4.4878 20 0 15.5122 0 10C0 4.4878 4.4878 0 10 0C15.5122 0 20 4.4878 20 10C20 15.522 15.5122 20 10 20ZM10 0.458538C4.74146 0.458538 0.448802 4.74146 0.448802 10C0.448802 15.2683 4.73171 19.5415 10 19.5415C15.2585 19.5415 19.5415 15.2585 19.5415 10C19.5512 4.74146 15.2683 0.458538 10 0.458538Z" fill="#454B73"/>
<path d="M11.3657 11.2583C11.5608 11.0826 11.8145 10.9948 12.0681 11.0143C12.3315 11.0339 12.5657 11.1509 12.7413 11.3461L13.7266 12.4582C13.8925 12.6436 13.9706 12.8778 13.9706 13.1217C13.9706 13.3948 13.8437 13.6583 13.6388 13.8339L13.512 13.9412C13.4925 13.9607 13.473 13.9704 13.4535 13.9802L11.1803 11.4046C11.1998 11.3851 11.2096 11.3656 11.2291 11.3558L11.3657 11.2583ZM6.55591 6.04848C6.5364 6.05824 6.52665 6.07776 6.50714 6.09727L8.77056 8.67288C8.79008 8.66312 8.80959 8.64362 8.8291 8.63386L8.94617 8.52654C9.15105 8.34118 9.26812 8.07776 9.27787 7.81435C9.28763 7.57045 9.19007 7.33629 9.03397 7.15093L8.04859 6.03873C7.68762 5.63873 7.07301 5.59971 6.67301 5.95093L6.55591 6.04848ZM12.9266 14.0485L11.0535 11.9119C10.9462 12.0387 10.8584 12.1753 10.8096 12.3314C10.4389 12.1753 9.6291 11.7753 8.95593 11.0143C8.27301 10.2436 7.94129 9.33629 7.81446 8.91678C7.97055 8.87775 8.11691 8.80947 8.25349 8.72166L6.38031 6.59484C6.21445 6.7802 6.10713 7.01434 6.06811 7.25825C6.06811 7.25825 6.06813 7.268 6.05837 7.29726V7.30703C6.04861 7.36557 6.0291 7.50215 6.0291 7.69727C6.01935 8.53629 6.24372 10.2339 7.90226 12.1265C10.0876 14.6046 12.0193 14.3217 12.2437 14.2826C12.4876 14.2631 12.7315 14.1851 12.9266 14.0485Z" fill="#454B73"/>
</svg>
